# xmcd
#
# Track frame offsets:
#	183
#	25438
#	52038
#	65995
#	93418
#	113158
#	145880
#	160428
#	179303
#	196670
#	212058
#
# Disc length: 3083 seconds
#
# Revision: 10
# Processed by: cddbd v1.5.1PL0 Copyright (c) Steve Scherf et al.
# Submitted via: dBpowerAMP V4.0
#
DISCID=a40c090b
DTITLE=Various Artist - Round Midnight
DYEAR=1986
DGENRE=Jazz
TTITLE0=Round Midnight - 'Round Midnight (Hanighen/Monk/Williams)  
TTITLE1=Body and soul - Body and Soul (Eyton/Green/Heyman/Sour) 
TTITLE2=Berangere's Nightmare - Berangere's Nightmare (Hancock) 
TTITLE3=Fair weather - Fair Weather (Dorham) 
TTITLE4=Una noche con Francis - Una Noche con Francis (Powell) 
TTITLE5=The Peacock's - The Peacocks (Rowles) 
TTITLE6=How long has this been going on? - How Long Has This Been Going? (Gershwin/Gershwin) 
TTITLE7=Rhythm-a-ning - Rhythm-A-Ning (Monk) 
TTITLE8=Still time - Still Time (Hancock) 
TTITLE9=Minuit aux Champs-Elysees - Minuit aux Champs-Elysées (Renaud) 
TTITLE10=Chan's song (never said) - Chan's Song (Never Said) 
EXTD=
EXTT0=
EXTT1=
EXTT2=
EXTT3=
EXTT4=
EXTT5=
EXTT6=
EXTT7=
EXTT8=
EXTT9=
EXTT10=
PLAYORDER=
